#!OML:ASF E:\Steps\Project 1\Capture day 1\Session 2\Subject.ASF
:FULLY-SPECIFIED
:DEGREES
187
root 9.6272 16.335 9.58403 -149.277 -0.100638 179.093
lowerback -25.9883 -1.83614 -6.57786
upperback -3.00116 -1.27399 -0.505698
thorax 11.223 -1.21208 2.70247
lowerneck -5.53424 1.13293 -5.77001
upperneck 9.77385 2.51632 29.639
head 3.3246 3.6518 10.8082
rclavicle 7.05686e-015 -1.07344e-014
rhumerus -37.3816 -12.5978 -81.2985
rradius 38.7267
rwrist -4.60202
rhand -7.86656 -50.2631
rfingers 7.12502
rthumb 18.0372 -439.447
lclavicle 7.05686e-015 -1.07344e-014
lhumerus -32.8585 3.64181 80.5963
lradius 25.9296
lwrist -3.56794
lhand -20.6525 -12.0157
lfingers 7.12502
lthumb 5.70986 17.8874
rfemur -29.8825 9.52768 17.6805
rtibia 10.8065
rfoot -20.9294 -5.79412
rtoes -29.0708
lfemur -32.5091 -10.9981 -16.2079
ltibia 14.2142
lfoot -11.1082 4.75812
ltoes -39.3473
188
root 9.62995 16.3355 9.59301 -149.149 -0.214869 179.147
lowerback -25.8596 -1.84295 -6.50399
upperback -2.89408 -1.28493 -0.498898
thorax 11.2796 -1.20701 2.666
lowerneck -5.70288 1.19814 -5.57247
upperneck 9.87374 2.60607 29.655
head 3.37209 3.7353 10.7898
rclavicle 2.98177e-015 -3.02153e-014
rhumerus -37.1234 -12.533 -81.4769
rradius 39.0753
rwrist -4.66851
rhand -7.86286 -50.8511
rfingers 7.12502
rthumb 18.0408 -440.034
lclavicle 2.98177e-015 -3.02153e-014
lhumerus -32.5582 3.81107 80.4998
lradius 25.7355
lwrist -3.66781
lhand -20.8743 -11.954
lfingers 7.12502
lthumb 5.49567 17.9548
rfemur -30.2825 9.56768 17.7238
rtibia 11.2758
rfoot -21.1668 -5.79176
rtoes -28.4474
lfemur -33.061 -11.1371 -16.0105
ltibia 14.9396
lfoot -11.4429 4.81527
ltoes -38.1223
189
root 9.63202 16.3363 9.60565 -148.968 -0.297863 179.196
lowerback -25.6839 -1.82842 -6.47196
upperback -2.8738 -1.27776 -0.485507
thorax 11.2094 -1.19641 2.66907
lowerneck -5.77558 1.2826 -5.39961
upperneck 9.98286 2.72669 29.6667
head 3.3974 3.82677 10.7714
rclavicle -6.95746e-016 -1.51076e-014
rhumerus -36.9408 -12.4659 -81.5539
rradius 39.3768
rwrist -4.85026
rhand -7.93308 -51.3248
rfingers 7.12502
rthumb 17.9732 -440.514
lclavicle -6.95746e-016 -1.51076e-014
lhumerus -32.4961 3.84993 80.459
lradius 25.7093
lwrist -3.63388
lhand -20.9906 -11.1139
lfingers 7.12502
lthumb 5.38345 18.7977
rfemur -30.9023 9.84922 17.663
rtibia 12.0174
rfoot -21.6933 -6.11436
rtoes -27.979
lfemur -33.7267 -11.2325 -15.8222
ltibia 15.7187
lfoot -11.771 4.87535
ltoes -37.7564
190
root 9.63355 16.3334 9.6177 -148.765 -0.325573 179.232
lowerback -25.486 -1.80086 -6.45154
upperback -2.92327 -1.26541 -0.487248
thorax 11.0458 -1.18499 2.66433
lowerneck -5.82039 1.36546 -5.24425
upperneck 10.101 2.8459 29.6968
head 3.41978 3.91755 10.7628
rclavicle 1.49089e-015 -9.14409e-015
rhumerus -36.8148 -12.2594 -81.6327
rradius 39.5754
rwrist -4.99877
rhand -7.83138 -51.8027
rfingers 7.12502
rthumb 18.0711 -440.983
lclavicle 1.49089e-015 -9.14409e-015
lhumerus -32.5765 3.80373 80.4239
lradius 25.6976
lwrist -3.59622
lhand -21.1482 -11.0327
lfingers 7.12502
lthumb 5.2313 18.8828
rfemur -31.8873 10.1565 17.5869
rtibia 13.4574
rfoot -22.5216 -6.64991
rtoes -28.441
lfemur -34.5107 -11.2602 -15.702
ltibia 16.7148
lfoot -12.1236 4.97069
ltoes -38.3062
191
root 9.63625 16.3284 9.63294 -148.545 -0.344631 179.285
lowerback -25.2646 -1.73045 -6.38376
upperback -2.98809 -1.21032 -0.529639
thorax 10.8465 -1.15057 2.6018
lowerneck -5.83317 1.4335 -5.03542
upperneck 10.2182 2.94566 29.706
head 3.44136 3.99988 10.7347
rclavicle -6.36111e-015 1.35174e-014
rhumerus -36.7555 -11.9773 -81.7942
rradius 39.8099
rwrist -5.1573
rhand -7.51182 -51.8148
rfingers 7.12502
rthumb 18.3785 -440.967
lclavicle -6.36111e-015 1.35174e-014
lhumerus -32.5918 3.78901 80.3396
lradius 25.6185
lwrist -3.60326
lhand -21.2175 -11.6277
lfingers 7.12502
lthumb 5.16438 18.2893
rfemur -32.4824 9.77115 17.7446
rtibia 14.0299
rfoot -22.5101 -6.392
rtoes -28.8522
lfemur -35.4165 -11.2121 -15.5709
ltibia 17.9132
lfoot -12.5232 5.01047
ltoes -38.3008
192
root 9.6386 16.3219 9.65026 -148.36 -0.443158 179.273
lowerback -24.8906 -1.68042 -6.327
upperback -3.06526 -1.18325 -0.628759
thorax 10.5543 -1.12545 2.47519
lowerneck -5.86387 1.4958 -4.73708
upperneck 10.3549 3.02748 29.6629
head 3.47876 4.07811 10.6715
rclavicle 1.13307e-014 -3.18055e-015
rhumerus -36.8235 -11.8752 -82.0165
rradius 40.1684
rwrist -5.22027
rhand -7.22455 -51.5184
rfingers 7.12502
rthumb 18.6548 -440.644
lclavicle 1.13307e-014 -3.18055e-015
lhumerus -32.6071 3.86378 80.1175
lradius 25.5557
lwrist -3.80781
lhand -21.1691 -11.9816
lfingers 7.12502
lthumb 5.2111 17.9343
rfemur -33.1878 9.5577 17.7823
rtibia 14.9906
rfoot -22.7466 -6.29768
rtoes -28.9689
lfemur -36.2784 -11.1737 -15.5073
ltibia 19.0397
lfoot -12.8773 4.928
ltoes -38.4025
193
root 9.64121 16.312 9.66427 -148.243 -0.560319 179.227
lowerback -24.4328 -1.68761 -6.34441
upperback -3.11563 -1.21274 -0.691374
thorax 10.2558 -1.12791 2.41514
lowerneck -5.94162 1.58521 -4.45475
upperneck 10.4924 3.13978 29.5979
head 3.51995 4.16881 10.6056
rclavicle -9.93923e-016 2.46493e-014
rhumerus -36.8424 -11.7464 -82.2243
rradius 40.5156
rwrist -5.1761
rhand -7.03917 -51.0967
rfingers 7.12502
rthumb 18.8331 -440.205
lclavicle -9.93923e-016 2.46493e-014
lhumerus -32.673 3.93064 79.9224
lradius 25.6149
lwrist -4.05865
lhand -21.2162 -12.1635
lfingers 7.12502
lthumb 5.16557 17.7535
rfemur -33.9844 9.33951 17.8067
rtibia 16.3368
rfoot -23.3986 -6.28089
rtoes -29.2318
lfemur -37.0982 -11.2402 -15.4646
ltibia 20.2346
lfoot -13.2406 4.93672
ltoes -39.153
194
root 9.64463 16.3006 9.67757 -148.181 -0.601598 179.243
lowerback -24.0404 -1.70049 -6.39426
upperback -3.06423 -1.22407 -0.659679
thorax 10.1089 -1.12315 2.48345
lowerneck -6.0886 1.7219 -4.2286
upperneck 10.6204 3.31603 29.5226
head 3.55887 4.28648 10.5496
rclavicle -7.95139e-015 -7.95139e-015
rhumerus -36.5383 -11.3771 -82.3929
rradius 40.7224
rwrist -5.25558
rhand -6.97341 -50.7715
rfingers 7.12502
rthumb 18.8964 -439.874
lclavicle -7.95139e-015 -7.95139e-015
lhumerus -32.6305 4.13202 79.8521
lradius 25.7317
lwrist -4.23252
lhand -21.2083 -12.2716
lfingers 7.12502
lthumb 5.17318 17.6453
rfemur -34.7782 9.15005 17.91
rtibia 17.687
rfoot -23.969 -6.38559
rtoes -29.9122
lfemur -37.9079 -11.2467 -15.3918
ltibia 21.562
lfoot -13.6016 5.04563
ltoes -40.4908
195
root 9.65225 16.2829 9.71449 -147.645 -0.857443 179.224
lowerback -23.8337 -1.79625 -6.45399
upperback -3.15759 -1.36635 -0.599927
thorax 9.90871 -1.18925 2.54374
lowerneck -6.34832 1.86368 -3.93721
upperneck 10.8179 3.48587 29.4602
head 3.64301 4.42228 10.4966
rclavicle -1.78906e-015 -9.54166e-015
rhumerus -36.1519 -11.0361 -82.6033
rradius 40.9103
rwrist -5.39222
rhand -7.06457 -50.6741
rfingers 7.12502
rthumb 18.8087 -439.785
lclavicle -1.78906e-015 -9.54166e-015
lhumerus -32.4738 4.33769 79.7909
lradius 25.7438
lwrist -4.33965
lhand -21.2005 -12.3945
lfingers 7.12502
lthumb 5.18079 17.5221
rfemur -36.2642 8.84691 17.9727
rtibia 19.2214
rfoot -24.4667 -6.64575
rtoes -30.6256
lfemur -39.643 -11.1588 -15.1917
ltibia 23.3811
lfoot -13.9849 4.93209
ltoes -41.916
196
root 9.65548 16.2611 9.74191 -147.274 -1.02784 179.348
lowerback -23.639 -1.74014 -6.29924
upperback -3.20834 -1.34803 -0.603553
thorax 9.74364 -1.16931 2.46237
lowerneck -6.44278 1.98808 -3.55109
upperneck 10.9596 3.64975 29.3473
head 3.68493 4.54399 10.3965
rclavicle 8.94531e-015 -1.43125e-014
rhumerus -36.0853 -10.8624 -82.7986
rradius 41.3766
rwrist -5.55623
rhand -7.23325 -50.6025
rfingers 7.12502
rthumb 18.6465 -439.729
lclavicle 8.94531e-015 -1.43125e-014
lhumerus -32.4509 4.07427 79.8112
lradius 25.924
lwrist -4.10449
lhand -21.1433 -12.5205
lfingers 7.12502
lthumb 5.23596 17.3948
rfemur -37.6339 8.62031 18.1844
rtibia 20.982
rfoot -25.108 -6.65397
rtoes -31.0061
lfemur -41.1338 -11.1223 -14.8704
ltibia 25.1767
lfoot -14.4757 4.92597
ltoes -41.8193
197
root 9.6552 16.2384 9.75491 -147.276 -1.08557 179.463
lowerback -23.3001 -1.61863 -6.13092
upperback -3.11609 -1.21865 -0.664288
thorax 9.6527 -1.08871 2.34643
lowerneck -6.46066 6.37119 -3.5894
upperneck 8.99409 3.24218 29.5726
head 3.12822 1.58175 10.2181
rclavicle -1.98785e-016 -2.78299e-014
rhumerus -36.0431 -10.626 -83.0152
rradius 41.9002
rwrist -5.78961
rhand -7.49316 -50.3347
rfingers 7.12502
rthumb 18.3965 -439.485
lclavicle -1.98785e-016 -2.78299e-014
lhumerus -32.5096 3.64352 79.8306
lradius 26.3423
lwrist -3.71263
lhand -20.8522 -12.4567
lfingers 7.12502
lthumb 5.51703 17.4515
rfemur -38.5036 8.50609 18.3639
rtibia 22.6317
rfoot -25.8118 -6.61292
rtoes -31.1314
lfemur -41.9954 -11.0949 -14.7226
ltibia 26.7273
lfoot -14.9658 4.8632
ltoes -40.7258
198
root 9.66316 16.2047 9.79396 -146.645 -1.31838 179.311
lowerback -23.1834 -1.69549 -6.25576
upperback -3.21541 -1.31057 -0.713903
thorax 9.48708 -1.13609 2.33718
lowerneck -6.61964 6.59967 -3.1362
upperneck 9.16087 3.47149 29.3659
head 3.18558 1.72556 10.0723
rclavicle -7.7526e-015 3.97569e-014
rhumerus -35.7145 -10.0893 -83.3468
rradius 42.2394
rwrist -6.12211
rhand -7.6744 -50.3877
rfingers 7.12502
rthumb 18.2221 -439.554
lclavicle -7.7526e-015 3.97569e-014
lhumerus -32.4096 3.54916 79.7555
lradius 26.6484
lwrist -3.73367
lhand -20.7717 -11.8964
lfingers 7.12502
lthumb 5.59475 18.0098
rfemur -40.3046 8.17252 18.2627
rtibia 24.5885
rfoot -26.5138 -6.80342
rtoes -31.2372
lfemur -43.9328 -11.0203 -14.6728
ltibia 28.7149
lfoot -15.3753 4.5359
ltoes -40.627
